Coordinates
version=1
nRows=7
nColumns=40
inDegrees=yes

Units are S.I. units (second, meters, Newtons, ...)
Angles are in degrees.

endheader
time	pelvis_tilt	pelvis_list	pelvis_rotation	pelvis_tx	pelvis_ty	pelvis_tz	hip_flexion_r	hip_adduction_r	hip_rotation_r	knee_angle_r	knee_angle_r_beta	ankle_angle_r	subtalar_angle_r	mtp_angle_r	hip_flexion_l	hip_adduction_l	hip_rotation_l	knee_angle_l	knee_angle_l_beta	ankle_angle_l	subtalar_angle_l	mtp_angle_l	lumbar_extension	lumbar_bending	lumbar_rotation	arm_flex_r	arm_add_r	arm_rot_r	elbow_flex_r	pro_sup_r	wrist_flex_r	wrist_dev_r	arm_flex_l	arm_add_l	arm_rot_l	elbow_flex_l	pro_sup_l	wrist_flex_l	wrist_dev_l
     16.07600000	     -2.11650308	     -5.39092073	      8.23650558	      1.11298485	      0.93246888	      0.46820480	      5.45192414	      4.18079043	    -19.99968112	     13.27774815	     13.27774815	     11.25788602	     -2.27292919	     -4.86782612	     34.40724798	    -10.67239294	      1.01009407	     46.45935210	     46.45935210	     10.47019006	    -18.52362707	     14.82167689	    -10.25931736	      6.93441055	      4.46446581	     22.16322170	    -18.13166500	     -6.00836085	     44.67277833	     45.94223102	      0.00000000	      0.00000000	      3.77898822	     -6.86219705	      3.79595835	     33.15011760	     46.49234656	      0.00000000	      0.00000000
     16.08700000	     -2.23232249	     -5.38575184	      8.41110281	      1.11178747	      0.93197338	      0.46789093	      4.73282372	      4.32917270	    -20.08239664	     12.68839195	     12.68839195	     11.57130081	     -2.02498187	     -4.93993368	     34.79884598	    -10.16858939	      1.21061571	     42.94002786	     42.94002786	     10.02208300	    -18.09228012	     14.84267152	    -10.24485348	      6.81172210	      4.24515645	     24.49004846	    -18.24096860	     -6.05053282	     46.67640245	     45.87899743	      0.00000000	      0.00000000	      2.19692915	     -7.02484712	      3.80410381	     31.72539880	     46.45029792	      0.00000000	      0.00000000
     16.09800000	     -2.40162281	     -5.42660010	      8.55937944	      1.11068382	      0.93123247	      0.46752050	      4.02961576	      4.48039604	    -20.48099018	     12.04242343	     12.04242343	     11.87252596	     -1.16815298	     -5.32718389	     35.05610309	     -9.75763574	      1.33747413	     39.15367441	     39.15367441	      8.72780345	    -17.43810131	     12.40016466	    -10.17005801	      6.77922925	      4.52350976	     25.94714803	    -19.00512774	     -5.39065702	     50.14555009	     45.71553721	      0.00000000	      0.00000000	      1.39605347	     -6.85274922	      3.47478214	     28.83954301	     46.43257588	      0.00000000	      0.00000000
     16.10900000	     -2.56733354	     -5.40867299	      8.65505359	      1.10966169	      0.93051824	      0.46712344	      3.32884594	      4.61944709	    -20.46104799	     11.40964875	     11.40964875	     12.18420730	     -0.91969626	     -5.36729872	     35.24319947	     -9.28104872	      1.53627352	     35.51968793	     35.51968793	      8.48866593	    -16.18921529	     12.46933535	    -10.11307457	      6.62124105	      4.43830684	     28.19245792	    -19.08135177	     -5.52910969	     51.93165865	     45.66752043	      0.00000000	      0.00000000	     -0.18838537	     -7.06003227	      3.46214720	     27.74323860	     46.39685498	      0.00000000	      0.00000000
     16.12000000	     -2.90674793	     -5.60551583	      8.73629119	      1.10860910	      0.92922287	      0.46673054	      2.96470389	      4.91142902	    -20.50155623	     11.01937150	     11.01937150	     12.56398837	     -0.71531483	     -5.49816253	     35.72656152	     -9.01294600	      1.84841074	     32.18672698	     32.18672698	      8.40313362	    -14.52020312	     12.65668045	     -9.77777191	      6.72227939	      4.81808672	     30.31652411	    -19.66669308	     -5.73651478	     53.22727997	     45.64140270	      0.00000000	      0.00000000	     -1.64077174	     -7.16383340	      3.45591646	     26.99164896	     46.36909637	      0.00000000	      0.00000000
     16.13100000	     -2.91986196	     -5.56490026	      8.83052838	      1.10820672	      0.92851874	      0.46616216	      1.80970447	      5.08038081	    -20.91578326	      9.93773893	      9.93773893	     12.84386087	      0.53296341	     -5.71959877	     35.43830490	     -8.67364797	      1.76656856	     28.52107335	     28.52107335	      7.35406281	    -12.54609483	      9.92402233	     -9.89784390	      6.58983726	      4.62717995	     31.48514139	    -19.87304604	     -5.12767921	     58.21120038	     45.44372549	      0.00000000	      0.00000000	     -2.93469770	     -7.26715275	      3.16738573	     25.09133544	     46.34903838	      0.00000000	      0.00000000
     16.14200000	     -3.11800738	     -5.57113532	      8.85623957	      1.10766271	      0.92739983	      0.46556918	      1.12310477	      5.22529676	    -20.84704202	      9.33653947	      9.33653947	     13.20241367	      0.82273156	     -5.77356690	     35.46766430	     -8.33748578	      1.79845332	     25.42290030	     25.42290030	      7.38324798	    -10.42066439	     10.15214306	     -9.70731643	      6.45875175	      4.57147701	     33.59774781	    -19.82216029	     -5.31354272	     59.90631354	     45.40301184	      0.00000000	      0.00000000	     -4.51797621	     -7.46712541	      3.16166700	     24.31454063	     46.31404590	      0.00000000	      0.00000000
